<svg width="25" height="26" viewBox="0 0 25 26" fill="none" xmlns="http://www.w3.org/2000/svg">
<g clip-path="url(#clip0_201912_146)">
<path d="M10.3511 15.1212C10.3511 16.1921 9.57426 16.5305 8.61989 16.5305H6.11745V13.5953H8.66983C9.70188 13.6008 10.3511 14.0281 10.3511 15.1212ZM9.92383 10.5546C9.92383 9.57253 9.16366 9.33948 8.32026 9.33948H6.123V11.8253H8.49227C9.33012 11.8253 9.92383 11.4591 9.92383 10.5546ZM17.2647 11.8419C16.2493 11.8419 15.5724 12.4745 15.5058 13.4899H18.957C18.8627 12.4634 18.33 11.8419 17.2647 11.8419ZM24.8608 3.30255V22.8338C24.8608 24.3042 23.6678 25.4972 22.1974 25.4972H2.66619C1.1958 25.4972 0.00283813 24.3042 0.00283813 22.8338V3.30255C0.00283813 1.83216 1.1958 0.639198 2.66619 0.639198H22.1974C23.6678 0.639198 24.8608 1.83216 24.8608 3.30255ZM15.0785 9.12863H19.3954V8.07994H15.0785V9.12863ZM12.6926 15.2488C12.6926 13.9116 12.0601 12.7575 10.7506 12.3857C11.7049 11.9307 12.2043 11.4036 12.2043 10.3327C12.2043 8.21311 10.623 7.69708 8.79745 7.69708H3.77592V18.3505H8.94171C10.8782 18.3394 12.6926 17.4128 12.6926 15.2488ZM21.0877 14.4276C21.0877 12.1471 19.7505 10.2439 17.3368 10.2439C14.9842 10.2439 13.3917 12.0084 13.3917 14.3277C13.3917 16.7303 14.9065 18.3782 17.3368 18.3782C19.179 18.3782 20.3719 17.5515 20.949 15.7815H19.0791C18.8738 16.4418 18.047 16.7858 17.4034 16.7858C16.1605 16.7858 15.5113 16.0589 15.5113 14.8271H21.0711C21.0766 14.6995 21.0877 14.5608 21.0877 14.4276Z" fill="#918E9B"/>
</g>
<defs>
<clipPath id="clip0_201912_146">
<rect width="25" height="26" fill="white"/>
</clipPath>
</defs>
</svg>
